<?xml version="1.0" encoding="UTF-8" standalone="no"?>
<!-- Created with Inkscape (http://www.inkscape.org/) -->

<svg
   xmlns:dc="http://purl.org/dc/elements/1.1/"
   xmlns:cc="http://creativecommons.org/ns#"
   xmlns:rdf="http://www.w3.org/1999/02/22-rdf-syntax-ns#"
   xmlns:svg="http://www.w3.org/2000/svg"
   xmlns="http://www.w3.org/2000/svg"
   xmlns:sodipodi="http://sodipodi.sourceforge.net/DTD/sodipodi-0.dtd"
   xmlns:inkscape="http://www.inkscape.org/namespaces/inkscape"
   width="154.49173mm"
   height="81.647926mm"
   viewBox="0 0 154.49173 81.647926"
   version="1.1"
   id="svg8"
   inkscape:version="0.92.4 (5da689c313, 2019-01-14)"
   sodipodi:docname="httk-logo-curves.svg"
   inkscape:export-filename="/home/rar/Research/Codes/Httk/gfx/httk-logo.png"
   inkscape:export-xdpi="493.23001"
   inkscape:export-ydpi="493.23001">
  <defs
     id="defs2" />
  <sodipodi:namedview
     id="base"
     pagecolor="#ffffff"
     bordercolor="#666666"
     borderopacity="1.0"
     inkscape:pageopacity="0.0"
     inkscape:pageshadow="2"
     inkscape:zoom="0.35"
     inkscape:cx="-1830.1742"
     inkscape:cy="-234.58128"
     inkscape:document-units="mm"
     inkscape:current-layer="layer1"
     showgrid="false"
     inkscape:window-width="2560"
     inkscape:window-height="1343"
     inkscape:window-x="1920"
     inkscape:window-y="27"
     inkscape:window-maximized="1"
     fit-margin-left="10"
     fit-margin-top="10"
     fit-margin-right="10"
     fit-margin-bottom="10" />
  <metadata
     id="metadata5">
    <rdf:RDF>
      <cc:Work
         rdf:about="">
        <dc:format>image/svg+xml</dc:format>
        <dc:type
           rdf:resource="http://purl.org/dc/dcmitype/StillImage" />
        <dc:title />
      </cc:Work>
    </rdf:RDF>
  </metadata>
  <g
     inkscape:label="Layer 1"
     inkscape:groupmode="layer"
     id="layer1"
     transform="translate(-19.013332,-12.678635)">
    <g
       aria-label="httk"
       style="font-style:normal;font-variant:normal;font-weight:normal;font-stretch:normal;font-size:80.69100189px;line-height:125%;font-family:NanumBarunGothic;-inkscape-font-specification:'NanumBarunGothic, Normal';font-variant-ligatures:normal;font-variant-caps:normal;font-variant-numeric:normal;font-feature-settings:normal;text-align:start;letter-spacing:0px;word-spacing:0px;writing-mode:lr-tb;text-anchor:start;fill:#ff4b39;fill-opacity:1;stroke:none;stroke-width:0.26458332px;stroke-linecap:butt;stroke-linejoin:miter;stroke-opacity:1"
       id="text4520">
      <path
         d="m 34.581012,27.600786 v -1.855893 q 1.210365,-0.484146 2.662803,-0.968292 1.533129,-0.564837 3.146949,-0.968292 1.61382,-0.484146 3.146949,-0.726219 1.533129,-0.322764 2.904876,-0.403455 l 1.694511,0.726219 -7.26219,33.890221 h 0.403455 q 1.533129,-3.22764 3.469713,-5.971134 1.936584,-2.824185 4.03455,-4.84146 2.178657,-2.097966 4.518696,-3.22764 2.340039,-1.210365 4.760769,-1.210365 3.711786,0 5.325606,2.178657 1.694511,2.097966 1.694511,5.244915 0,2.178657 -0.403455,4.680078 -0.403455,2.501421 -0.968292,4.84146 l -4.599387,19.849987 h 5.971134 v 2.097966 q -1.61382,1.291056 -3.873168,2.097966 -2.259348,0.80691 -4.518696,0.80691 -2.340039,0 -3.22764,-0.968292 -0.887601,-0.968292 -0.887601,-2.097966 0,-1.452438 0.403455,-3.22764 0.403455,-1.855893 0.80691,-3.711786 l 2.904876,-13.475398 q 0.564837,-2.501421 0.968292,-4.680078 0.484146,-2.178657 0.484146,-4.195932 0,-1.855893 -0.80691,-3.146949 -0.80691,-1.291056 -2.178657,-1.291056 -2.501421,0 -4.84146,1.775202 -2.340039,1.775202 -4.357314,4.276623 -2.017275,2.501421 -3.550404,5.244915 Q 40.87491,61.006861 40.068,62.782063 L 35.791377,83.358269 H 29.013332 L 40.068,28.327005 Z"
         style="font-style:italic;font-variant:normal;font-weight:normal;font-stretch:normal;font-size:80.69100189px;font-family:'PT Serif';-inkscape-font-specification:'PT Serif, Italic';font-variant-ligatures:normal;font-variant-caps:normal;font-variant-numeric:normal;font-feature-settings:normal;text-align:start;writing-mode:lr-tb;text-anchor:start;fill:#ff4b39;fill-opacity:1;stroke-width:0.26458332px"
         id="path814" />
      <path
         d="m 74.439843,44.949352 q 1.61382,-0.887601 3.389022,-1.61382 1.855893,-0.726219 3.631095,-1.129674 l 1.291056,-6.132516 q 1.129674,-0.887601 2.582112,-1.533129 1.533129,-0.726219 3.146949,-1.371747 l 1.694512,0.968292 -1.936585,8.87601 h 10.005685 q 0.161382,0.968292 0,2.017275 -0.161382,1.048983 -0.80691,2.017275 H 87.431094 l -5.083533,23.40039 q -0.322764,1.533129 -0.484146,2.743494 -0.161382,1.129675 -0.161382,2.097967 0,2.097966 1.210365,3.066258 1.210365,0.968292 2.662803,0.968292 2.017275,0 4.276624,-0.726219 2.340039,-0.80691 4.276623,-1.775202 l 0.887601,1.452438 q -0.726219,1.048983 -2.178657,2.097966 -1.452438,1.048983 -3.308331,1.936584 -1.775203,0.887601 -3.792478,1.452438 -1.936584,0.564837 -3.711786,0.564837 -3.550404,0 -5.567679,-1.61382 -2.017275,-1.61382 -2.017275,-5.002842 0,-1.129674 0.161382,-2.501421 0.242073,-1.371747 0.564837,-2.824186 l 5.325606,-25.336974 h -6.132516 z"
         style="font-style:italic;font-variant:normal;font-weight:normal;font-stretch:normal;font-size:80.69100189px;font-family:'PT Serif';-inkscape-font-specification:'PT Serif, Italic';font-variant-ligatures:normal;font-variant-caps:normal;font-variant-numeric:normal;font-feature-settings:normal;text-align:start;writing-mode:lr-tb;text-anchor:start;fill:#ff4b39;fill-opacity:1;stroke-width:0.26458332px"
         id="path816" />
      <path
         d="m 101.70458,44.949352 q 1.61382,-0.887601 3.38902,-1.61382 1.85589,-0.726219 3.63109,-1.129674 l 1.29106,-6.132516 q 1.12967,-0.887601 2.58211,-1.533129 1.53313,-0.726219 3.14695,-1.371747 l 1.69451,0.968292 -1.93658,8.87601 h 10.00568 q 0.16138,0.968292 0,2.017275 -0.16138,1.048983 -0.80691,2.017275 h -10.00568 l -5.08354,23.40039 q -0.32276,1.533129 -0.48414,2.743494 -0.16138,1.129675 -0.16138,2.097967 0,2.097966 1.21036,3.066258 1.21037,0.968292 2.6628,0.968292 2.01728,0 4.27663,-0.726219 2.34004,-0.80691 4.27662,-1.775202 l 0.8876,1.452438 q -0.72622,1.048983 -2.17866,2.097966 -1.45243,1.048983 -3.30833,1.936584 -1.7752,0.887601 -3.79247,1.452438 -1.93659,0.564837 -3.71179,0.564837 -3.5504,0 -5.56768,-1.61382 -2.01727,-1.61382 -2.01727,-5.002842 0,-1.129674 0.16138,-2.501421 0.24207,-1.371747 0.56483,-2.824186 l 5.32561,-25.336974 h -6.13252 z"
         style="font-style:italic;font-variant:normal;font-weight:normal;font-stretch:normal;font-size:80.69100189px;font-family:'PT Serif';-inkscape-font-specification:'PT Serif, Italic';font-variant-ligatures:normal;font-variant-caps:normal;font-variant-numeric:normal;font-feature-settings:normal;text-align:start;writing-mode:lr-tb;text-anchor:start;fill:#ff4b39;fill-opacity:1;stroke-width:0.26458332px"
         id="path818" />
      <path
         d="m 148.7386,79.727174 q -2.58211,-4.357314 -4.35731,-8.230483 -1.7752,-3.953859 -3.38902,-7.342881 l -2.90488,-0.80691 -3.79248,20.011369 h -6.93942 l 10.97397,-55.031264 -5.64837,-0.726219 v -2.017275 q 2.34004,-1.048983 5.64837,-1.855893 3.38903,-0.887601 6.21321,-1.048983 l 1.69451,0.887601 -7.58495,37.682698 h 2.34004 q 1.69451,-1.048983 3.46971,-2.582112 1.85589,-1.533129 3.46971,-3.146949 1.69451,-1.61382 2.98557,-3.066258 1.29106,-1.533129 2.01728,-2.582112 0.0807,-0.564837 0.0807,-1.533129 0.0807,-0.968292 0,-1.936584 0,-1.048983 -0.0807,-1.936584 0,-0.968292 -0.0807,-1.452438 2.98557,-1.048983 5.80976,-1.048983 2.90487,0 4.84146,1.048983 -1.04899,2.662803 -3.22764,5.325606 -2.17866,2.662803 -4.68008,5.002842 -2.50142,2.259348 -4.92215,4.195932 -2.42073,1.855893 -3.87317,2.904876 0.56484,1.533129 1.7752,4.03455 1.29106,2.42073 2.7435,5.083533 1.53312,2.662803 3.14694,5.164225 1.69452,2.501421 3.06626,4.115241 h 5.08354 v 2.097966 q -1.61382,1.291056 -3.55041,2.097966 -1.85589,0.80691 -3.95386,0.80691 -1.93658,0 -3.46971,-0.887601 -1.53313,-0.887601 -2.90488,-3.22764 z"
         style="font-style:italic;font-variant:normal;font-weight:normal;font-stretch:normal;font-size:80.69100189px;font-family:'PT Serif';-inkscape-font-specification:'PT Serif, Italic';font-variant-ligatures:normal;font-variant-caps:normal;font-variant-numeric:normal;font-feature-settings:normal;text-align:start;writing-mode:lr-tb;text-anchor:start;fill:#ff4b39;fill-opacity:1;stroke-width:0.26458332px"
         id="path820" />
    </g>
  </g>
</svg>
